<svg xmlns="http://www.w3.org/2000/svg" version="1.1" xmlns:xlink="http://www.w3.org/1999/xlink" width="199" height="215"><svg width="199" height="215" viewBox="0 0 199 215" fill="none" xmlns="http://www.w3.org/2000/svg">
<path d="M62.9997 211H6.49997C-7.00007 211 42.4997 195.5 40.9998 180C39.4999 164.5 21.9997 159 26.9997 132.5C31.6384 107.915 65.5406 106.139 169.43 106.01C184.503 105.682 195 106 195 106C186.039 106 177.522 106 169.43 106.01C131.05 106.846 62.9997 111.87 62.9997 137C59.4997 157.5 80 162.5 82.5 180C85 197.501 78.9994 211 62.9997 211Z" fill="black"></path>
<path d="M6.49997 211C20 211 46.9999 211 62.9997 211C78.9994 211 85 197.501 82.5 180C80 162.5 59.4997 157.5 62.9997 137C62.9997 102 195 106 195 106C70.9997 106 31.9997 106 26.9997 132.5C21.9997 159 39.4999 164.5 40.9998 180C42.4997 195.5 -7.00007 211 6.49997 211Z" stroke="black" stroke-width="8" stroke-linecap="round" stroke-linejoin="round"></path>
<path d="M146 211H98.5C112 165.5 91.0001 166.5 80.0002 144C69.0003 121.5 163.5 106 195 106C195 106 119.5 115.5 120 144C120.5 172.5 162 178.5 146 211Z" fill="black" stroke="black" stroke-width="8" stroke-linecap="round" stroke-linejoin="round"></path>
<path d="M105 84.855V9H186V84.855H156.356L145.5 95L132.557 84.855H105Z" stroke="black" stroke-width="17" stroke-linecap="round" stroke-linejoin="round"></path>
<path d="M123.92 44.56C123.547 44.8533 123.147 44.8933 122.72 44.68C122.32 44.4667 122.12 44.1333 122.12 43.68V42.08C122.12 40.5867 122.72 39.3733 123.92 38.44L128.2 35.16C129.4 34.2533 130.76 33.8 132.28 33.8H133.48C134.093 33.8 134.613 34.0267 135.04 34.48C135.493 34.9333 135.72 35.4667 135.72 36.08V60.72C135.72 61.3333 135.493 61.8667 135.04 62.32C134.613 62.7733 134.093 63 133.48 63H132.28C131.667 63 131.133 62.7733 130.68 62.32C130.227 61.8667 130 61.3333 130 60.72V39.96L129.96 39.92L129.92 39.96L123.92 44.56ZM148.986 63C148.373 63 147.839 62.7733 147.386 62.32C146.959 61.8667 146.746 61.3333 146.746 60.72V36.08C146.746 35.4667 146.959 34.9333 147.386 34.48C147.839 34.0267 148.373 33.8 148.986 33.8H150.066C150.679 33.8 151.213 34.0267 151.666 34.48C152.119 34.9333 152.346 35.4667 152.346 36.08V46.44C152.346 46.4667 152.359 46.48 152.386 46.48C152.413 46.48 152.426 46.4667 152.426 46.44L160.466 35.64C161.346 34.4133 162.546 33.8 164.066 33.8H166.066C166.519 33.8 166.853 34.0133 167.066 34.44C167.279 34.8667 167.239 35.2533 166.946 35.6L157.746 47.52C157.613 47.7067 157.613 47.8933 157.746 48.08L167.386 61.16C167.679 61.5333 167.719 61.9333 167.506 62.36C167.293 62.7867 166.946 63 166.466 63H164.466C162.946 63 161.759 62.3867 160.906 61.16L152.426 49.16C152.426 49.1333 152.413 49.12 152.386 49.12C152.359 49.12 152.346 49.1333 152.346 49.16V60.72C152.346 61.3333 152.119 61.8667 151.666 62.32C151.213 62.7733 150.679 63 150.066 63H148.986Z" fill="black"></path>
</svg><style>@media (prefers-color-scheme: light) { :root { filter: none; } }
@media (prefers-color-scheme: dark) { :root { filter: none; } }
</style></svg>